<svg xmlns="http://www.w3.org/2000/svg" width="30" height="30" viewBox="0 0 30 30">
  <metadata><?xpacket begin="﻿" id="W5M0MpCehiHzreSzNTczkc9d"?>
<x:xmpmeta xmlns:x="adobe:ns:meta/" x:xmptk="Adobe XMP Core 5.6-c142 79.160924, 2017/07/13-01:06:39        ">
   <rdf:RDF xmlns:rdf="http://www.w3.org/1999/02/22-rdf-syntax-ns#">
      <rdf:Description rdf:about=""/>
   </rdf:RDF>
</x:xmpmeta>
                                                                                                    
                                                                                                    
                                                                                                    
                                                                                                    
                                                                                                    
                                                                                                    
                                                                                                    
                                                                                                    
                                                                                                    
                                                                                                    
                                                                                                    
                                                                                                    
                                                                                                    
                                                                                                    
                                                                                                    
                                                                                                    
                                                                                                    
                                                                                                    
                                                                                                    
                                                                                                    
                           
<?xpacket end="w"?></metadata>
<defs>
    <style>
      .cls-1 {
        fill: #4a90e2;
        fill-rule: evenodd;
      }
    </style>
  </defs>
  <path class="cls-1" d="M1679.52,2238.49v-0.01h-0.01a1.6,1.6,0,0,0-1.75-.36l-26.72,10.44a1.639,1.639,0,0,0,.38,3.15l13.06,1.76a0.121,0.121,0,0,1,.05.05l1.76,13.06a1.615,1.615,0,0,0,1.43,1.41,1.275,1.275,0,0,0,.2.01,1.621,1.621,0,0,0,1.52-1.04l10.45-26.72A1.62,1.62,0,0,0,1679.52,2238.49Zm-27.89,11.65c-0.03,0-.04,0-0.05-0.04s0.01-.05.04-0.06l25-9.78-11.69,11.7C1664.85,2251.93,1651.63,2250.14,1651.63,2250.14Zm16.33,16.24c-0.01.03-.01,0.04-0.06,0.04s-0.04-.02-0.04-0.05c0,0-1.79-13.22-1.82-13.3l11.7-11.69Z" transform="translate(-1650 -2238)"/>
</svg>
